HIERARCHY
ROOT Hips
{
	OFFSET 0.00000 0.00000 0.00000
	CHANNELS 6 Xposition Yposition Zposition Zrotation Yrotation Xrotation 
	JOINT RightUpLegDummy
	{
		OFFSET 0 0 0
		CHANNELS 3 Zrotation Yrotation Xrotation
		JOINT RightUpLeg
		{
			OFFSET -3.52197 -3.41223 0.04002
			CHANNELS 3 Zrotation Yrotation Xrotation
			JOINT RightLeg
			{
				OFFSET 0.00006 -17.42390 1.60435
				CHANNELS 3 Zrotation Yrotation Xrotation
				JOINT RightFoot
				{
					OFFSET 0.06154 -16.50078 -1.63900
					CHANNELS 3 Zrotation Yrotation Xrotation
					JOINT RightToes
					{
						OFFSET 0.00298 -1.73825 3.34613
						CHANNELS 3 Zrotation Yrotation Xrotation
						End Site
						{
							OFFSET 0.00480 -0.05416 3.85043
						}
					}
				}
			}
		}
	}
	JOINT SpineDummy
	{
		OFFSET 0 0 0
		CHANNELS 3 Zrotation Yrotation Xrotation
		JOINT Spine
		{
			OFFSET 0.00000 4.68130 0.00000
			CHANNELS 3 Zrotation Yrotation Xrotation
			JOINT Spine1
			{
				OFFSET -0.00000 10.10138 0.05002
				CHANNELS 3 Zrotation Yrotation Xrotation
				JOINT HEadDummy
				{
					OFFSET 0 0 0
					CHANNELS 3 Zrotation Yrotation Xrotation
					JOINT Head
					{
						OFFSET -0.00000 3.43865 0.00438
						CHANNELS 3 Zrotation Yrotation Xrotation
						End Site
						{
							OFFSET -0.11417 5.02924 0.98962
						}
					}
				}
				JOINT LeftShoulder1Dummy
				{
					OFFSET 0 0 0
					CHANNELS 3 Zrotation Yrotation Xrotation
					JOINT LeftShoulder1
					{
						OFFSET 3.53937 -0.14262 -0.08662
						CHANNELS 3 Zrotation Yrotation Xrotation
						JOINT LeftArm
						{
							OFFSET 4.04833 -0.00133 0.12681
							CHANNELS 3 Zrotation Yrotation Xrotation
							JOINT LeftForeArm
							{
								OFFSET 10.33880 -0.01036 -0.55515
								CHANNELS 3 Zrotation Yrotation Xrotation
								JOINT LeftHand
								{
									OFFSET 8.69677 0.07543 0.40060
									CHANNELS 3 Zrotation Yrotation Xrotation
									End Site
									{
										OFFSET 5.28377 -0.21905 0.59205
									}
								}
							}
						}
					}
				}
				JOINT RightShoulderDummy
				{
					OFFSET 0 0 0
					CHANNELS 3 Zrotation Yrotation Xrotation
					JOINT RightShoulder
					{
						OFFSET -3.53937 -0.14262 -0.08660
						CHANNELS 3 Zrotation Yrotation Xrotation
						JOINT RightArm
						{
							OFFSET -4.04833 -0.00133 0.12683
							CHANNELS 3 Zrotation Yrotation Xrotation
							JOINT RightForeArm
							{
								OFFSET -10.37987 -0.01039 -0.55511
								CHANNELS 3 Zrotation Yrotation Xrotation
								JOINT RightHand
								{
									OFFSET -8.67398 0.07538 0.40058
									CHANNELS 3 Zrotation Yrotation Xrotation
									End Site
									{
										OFFSET -5.24810 -0.21916 0.59204
									}
								}
							}
						}
					}
				}
			}
		}
	}
	JOINT LeftUpLegDummy
	{
		OFFSET 0 0 0
		CHANNELS 3 Zrotation Yrotation Xrotation
		JOINT LeftUpLeg
		{
			OFFSET 3.52197 -3.41223 0.04002
			CHANNELS 3 Zrotation Yrotation Xrotation
			JOINT LeftLeg
			{
				OFFSET -0.00012 -17.42399 1.60337
				CHANNELS 3 Zrotation Yrotation Xrotation
				JOINT LeftFoot
				{
					OFFSET -0.09972 -16.50070 -1.63802
					CHANNELS 3 Zrotation Yrotation Xrotation
					JOINT LeftToes
					{
						OFFSET -0.01575 -1.73823 3.34611
						CHANNELS 3 Zrotation Yrotation Xrotation
						End Site
						{
							OFFSET 0.03150 -0.01868 3.85031
						}
					}
				}
			}
		}
	}
}
MOTION
Frames: 7
Frame Time: 0.033333
-14.5153 37.0742 9.3104 175.5110 33.2548 179.2260 0.0000 0.0000 0.0000 -21.4637 -9.2727 -23.6435 -6.5595 -7.9140 33.3955 17.6019 -2.0578 1.9640 0.0000 0.0000 -0.0000 0.0000 0.0000 0.0000 -13.9077 -1.7141 11.3871 5.2123 -5.6752 21.2628 0.0000 0.0000 0.0000 -14.9737 34.7587 -16.6923 0.0000 0.0000 0.0000 -11.5506 0.6729 0.5299 -53.6558 -24.6068 28.3343 -177.4190 -77.9256 174.8896 27.0379 -3.6047 -2.0969 0.0000 0.0000 0.0000 11.8100 0.8221 0.8198 61.6353 -4.3811 13.5705 179.8643 63.2533 -172.2393 -12.4890 5.2881 -1.1088 0.0000 0.0000 0.0000 8.7201 -3.2042 -10.9617 3.1170 3.2513 34.2008 -18.3231 -1.4461 -21.0776 -0.0000 -0.0000 0.0000
-15.4143 36.6967 9.4892 175.0060 33.8802 177.6600 0.0000 0.0000 0.0000 -21.2833 -8.1422 -24.7269 -5.1583 -4.6387 40.8561 18.6285 -1.5644 -1.8521 0.0000 0.0000 -0.0000 0.0000 0.0000 0.0000 -15.4362 -0.7688 12.4573 4.6426 -4.9916 22.6963 0.0000 0.0000 0.0000 -14.7695 33.3640 -18.2925 0.0000 0.0000 0.0000 -11.3412 -0.3451 0.7134 -50.0063 -26.3402 23.0770 -176.7755 -79.6674 174.0888 28.2132 -3.4698 -2.1608 0.0000 0.0000 0.0000 12.1379 0.2457 0.7221 62.1966 -0.6664 15.2192 179.9179 65.0211 -171.6296 -13.4737 5.5674 -1.2308 0.0000 0.0000 0.0000 7.1026 -0.8632 -12.1682 3.2840 3.0135 37.8879 -15.3089 -1.4915 -23.4012 -0.0000 -0.0000 0.0000
-16.1250 36.5535 9.6086 175.2360 34.8763 177.4290 0.0000 0.0000 0.0000 -19.3594 -8.1531 -25.2271 -4.7197 -3.5923 45.3058 20.3523 -1.2252 -4.6165 0.0000 0.0000 -0.0000 0.0000 0.0000 0.0000 -15.6265 -0.0253 12.2978 3.4066 -3.8003 24.0136 0.0000 0.0000 0.0000 -13.4315 31.9811 -18.4576 0.0000 0.0000 0.0000 -11.4861 -1.3189 0.9003 -47.4630 -26.5887 19.1337 -175.3310 -83.0296 172.6223 30.1590 -3.3044 -2.2757 0.0000 0.0000 0.0000 12.2684 0.1544 0.7088 62.9363 2.0710 17.3053 -179.9940 66.4980 -170.8635 -14.4130 5.8663 -1.3559 0.0000 0.0000 0.0000 6.5899 0.2303 -13.3934 3.3202 2.8191 40.0105 -14.8890 -1.5343 -24.1426 -0.0000 -0.0000 0.0000
-16.6516 36.6700 9.6467 175.7890 36.1267 178.0500 0.0000 0.0000 0.0000 -16.5584 -9.2114 -24.6769 -5.7173 -4.2394 46.5058 21.4538 -0.8159 -7.1890 0.0000 0.0000 -0.0000 0.0000 0.0000 0.0000 -14.9292 0.3673 11.1798 1.6713 -2.3927 25.0281 0.0000 0.0000 0.0000 -11.4455 31.0531 -17.4711 0.0000 0.0000 0.0000 -12.3241 -1.4773 0.9666 -46.2577 -25.4477 17.2478 -172.5344 -85.5535 169.2959 32.0095 -3.2220 -2.4009 0.0000 0.0000 0.0000 12.2648 0.2717 0.7314 63.5080 3.2810 19.5930 -179.9397 66.6884 -170.2883 -15.2248 6.1695 -1.4734 0.0000 0.0000 0.0000 6.4385 0.8748 -14.0366 3.3064 2.8103 39.9792 -14.8979 -1.5110 -23.9514 -0.0000 -0.0000 0.0000
-17.0403 36.9818 9.6541 176.4240 37.4118 178.9520 0.0000 0.0000 0.0000 -13.8740 -10.1469 -23.0223 -7.1647 -5.7553 44.7157 21.1366 -0.3422 -9.7130 0.0000 0.0000 -0.0000 0.0000 0.0000 0.0000 -14.2063 0.6207 9.9255 0.3223 -1.2003 25.4717 0.0000 0.0000 0.0000 -9.7267 30.6331 -16.3480 0.0000 0.0000 0.0000 -13.6343 -1.0068 0.9293 -46.5084 -22.7535 16.5347 -171.3924 -86.1677 168.4517 32.4595 -3.3986 -2.4862 0.0000 0.0000 0.0000 12.3651 0.0630 0.6941 63.6533 3.7898 21.7999 -179.9279 66.0333 -170.1624 -15.5932 6.3624 -1.5353 0.0000 0.0000 0.0000 6.2489 1.4496 -13.9862 4.0503 3.7746 38.3250 -14.1179 -1.2980 -22.8924 -0.0000 -0.0000 0.0000
-17.3388 37.4085 9.6648 177.4070 38.6344 -179.8920 0.0000 0.0000 0.0000 -11.7026 -9.8546 -20.8411 -8.5545 -8.0803 40.4761 20.0679 -0.1033 -10.9840 0.0000 0.0000 -0.0000 0.0000 0.0000 0.0000 -13.4188 0.8198 9.0335 -0.4354 -0.3478 25.2185 0.0000 0.0000 0.0000 -8.7303 30.4228 -15.8220 0.0000 0.0000 0.0000 -14.7226 -0.5464 0.8753 -48.2175 -18.7385 16.1842 -173.4834 -85.6584 172.3339 31.8651 -3.7113 -2.5240 0.0000 0.0000 0.0000 12.5194 -0.3739 0.6137 63.6397 4.2179 23.3416 179.9934 65.3768 -170.9382 -15.5537 6.3406 -1.5286 0.0000 0.0000 0.0000 6.4146 1.4833 -13.4519 5.2032 5.4602 35.7900 -13.5688 -1.0422 -21.1568 -0.0000 -0.0000 0.0000
-17.5923 37.8513 9.6898 178.7340 39.6209 -178.5990 0.0000 0.0000 0.0000 -10.1825 -8.6640 -18.7780 -9.2528 -10.6013 35.0983 19.1179 -0.2180 -10.2708 0.0000 0.0000 -0.0000 0.0000 0.0000 0.0000 -12.3195 0.8433 8.5342 -1.1495 0.2202 24.5707 0.0000 0.0000 0.0000 -8.3445 30.1898 -15.9077 0.0000 0.0000 0.0000 -15.3522 -0.4053 0.8672 -50.9015 -14.4979 16.0044 -174.9489 -85.3740 175.6358 31.4476 -3.8845 -2.5359 0.0000 0.0000 0.0000 12.4986 -0.6067 0.5675 63.7358 4.7036 23.8617 179.8340 65.0574 -172.5212 -15.5807 6.1808 -1.5110 0.0000 0.0000 0.0000 7.0204 0.7034 -12.7046 6.0869 7.1596 33.0395 -13.6216 -0.8380 -19.3182 -0.0000 -0.0000 0.0000
